<?xml version="1.0" encoding="utf-8"?>
<!-- Generator: Adobe Illustrator 21.0.0, SVG Export Plug-In . SVG Version: 6.00 Build 0)  -->
<svg version="1.1"
	 id="svg5641" inkscape:version="0.91 r13725" sodipodi:docname="logo.svg" xmlns:cc="http://creativecommons.org/ns#" xmlns:dc="http://purl.org/dc/elements/1.1/" xmlns:inkscape="http://www.inkscape.org/namespaces/inkscape" xmlns:rdf="http://www.w3.org/1999/02/22-rdf-syntax-ns#" xmlns:sodipodi="http://sodipodi.sourceforge.net/DTD/sodipodi-0.dtd" xmlns:svg="http://www.w3.org/2000/svg"
	 xmlns="http://www.w3.org/2000/svg" xmlns:xlink="http://www.w3.org/1999/xlink" x="0px" y="0px" viewBox="0 0 314.5 248.2"
	 style="enable-background:new 0 0 314.5 248.2;" xml:space="preserve">
<style type="text/css">
	.st0{fill:#D38D5F;stroke:#000000;stroke-width:3.0505;stroke-linejoin:round;}
	.st1{fill:#D38D5F;stroke:#000000;stroke-width:2.9704;stroke-linejoin:round;}
	.st2{fill:#C87137;stroke:#000000;stroke-width:3.0505;stroke-linejoin:round;}
	.st3{fill:#80B3FF;stroke:#000000;stroke-width:2.5351;stroke-linejoin:round;}
	.st4{fill:#D38D5F;stroke:#000000;stroke-width:3.0505;stroke-linecap:round;stroke-linejoin:round;}
	.st5{fill:none;stroke:#000000;stroke-width:3.0505;}
	.st6{fill:none;stroke:#000000;stroke-width:3.0505;stroke-linecap:round;stroke-linejoin:round;}
	.st7{fill:none;stroke:#000000;}
	.st8{fill:#D38D5F;stroke:#000000;stroke-width:3.0505;}
	.st9{fill:#C87137;stroke:#000000;stroke-width:3.0505;stroke-linecap:round;stroke-linejoin:round;}
	.st10{fill:none;stroke:#000000;stroke-width:2.4;stroke-linejoin:round;}
</style>
<sodipodi:namedview  bordercolor="#666666" borderopacity="1" gridtolerance="10" guidetolerance="10" id="namedview4286" inkscape:current-layer="svg5641" inkscape:cx="206.90574" inkscape:cy="124.19" inkscape:pageopacity="0" inkscape:pageshadow="2" inkscape:window-height="776" inkscape:window-maximized="0" inkscape:window-width="1189" inkscape:window-x="0" inkscape:window-y="0" inkscape:zoom="2.0444092" objecttolerance="10" pagecolor="#ffffff" showgrid="false">
	</sodipodi:namedview>
<rect id="rect26320" x="53.2" y="13.6" class="st0" width="259.8" height="15.9"/>
<path id="path26330" inkscape:connector-curvature="0" class="st0" d="M279.2,108.4c0,20.2-41.8,36.6-93.3,36.6
	c-51.6,0-93.4-16.4-93.4-36.6c0-20.2,41.8-36.6,93.4-36.6C237.4,71.8,279.2,88.2,279.2,108.4z"/>
<rect id="rect26322" x="95.7" y="3" class="st0" width="22.8" height="93.5"/>
<rect id="rect26324" x="256.2" y="1.5" class="st1" width="20.3" height="99.8"/>
<path id="path26332" inkscape:connector-curvature="0" class="st2" d="M261.7,108.4c0,14.3-33.2,26-74.2,26c-41,0-74.3-11.6-74.2-26
	c0-14.3,33.2-26,74.2-26C228.5,82.4,261.7,94.1,261.7,108.4z"/>
<path id="path26334" inkscape:connector-curvature="0" class="st3" d="M259.8,114.8c0,10.1-32.6,18.3-72.9,18.3s-72.9-8.2-72.9-18.3
	c0-10.1,32.6-18.3,72.9-18.3S259.8,104.7,259.8,114.8z"/>
<path id="path26336" inkscape:connector-curvature="0" class="st4" d="M93.6,116.3L111,230.8l32.8,13.8l24,2.1h12l22.9-1.1l22.9-5.3
	l25.1-10.6l2.2-1.1l25.1-114.4l-19.6,18c0,0-49.1,10.6-53.5,10.6c-4.4,0-64.4,0-71-6.4c-6.6-6.4-26.2-10.6-30.6-14.8
	C99,117.4,95.7,116.3,93.6,116.3z"/>
<path id="path27564" inkscape:connector-curvature="0" class="st5" d="M123.2,130.4l6.6,107.6"/>
<path id="path27566" inkscape:connector-curvature="0" class="st5" d="M155.3,141.8l-1,103.6"/>
<path id="path27568" inkscape:connector-curvature="0" class="st5" d="M192.4,143.7l-5.1,103.1"/>
<path id="path27570" inkscape:connector-curvature="0" class="st5" d="M224.9,138.8l-6.1,103.1"/>
<path id="path27572" inkscape:connector-curvature="0" class="st5" d="M254.4,133.9l-10.7,97.7"/>
<path id="path27578" inkscape:connector-curvature="0" class="st6" d="M100.9,168.4c4.2,0,4.2,7.4,7.6,9.9c3.7,2.7,6.8,3.9,11.2,4.9
	c2.8,0.7,6.1,3.1,9.2,4.9c4.6,2.7,10.9,3.9,16.8,6.4c3.5,1.5,8.5,0.3,12.2,1c7.4,1.4,16.4,1,23.9,1c5.6,0,11.4,0.3,16.8-1
	c8.9-2.1,20.1,1.4,28-2.5c4.1-2,7.2-0.7,9.1-4.4c0.8-1.5,5.3-2.8,6.6-3.4c1.8-0.9,4.7-2.6,6.1-3.9c1.4-1.4,6.7-3.1,8.1-3.4
	c2.8-0.7,6.7-3.3,7.1-4.9c0.1-0.4,0.3-0.6,0.5-1"/>
<path id="path27582" inkscape:connector-curvature="0" class="st6" d="M103.9,184.7c1.3,0.3,7,4.1,9.7,5.4c2.7,1.3,5.5,2.9,8.7,3.9
	c3.6,1.1,7.6,2.4,10.7,3.9c4.3,2.1,10.5,3.5,13.7,5.4c3.1,1.8,11.6,3.4,15.3,3.4c4.8,0,9.5,0.5,14.2,0.5h12.2h13.2
	c4.7,0,8.3-1,13.2-1c3.9,0,6-3,10.2-3c2,0,5.6-1.5,6.6-2c2.5-1.2,3.6-2.5,5.6-3.4c3.1-1.5,4.5-1.9,7.6-3.4c2.6-1.3,4.9-1.4,7.1-2.5
	c2.3-1.1,3.2-2.3,6.1-3c1.6-0.4,3-1,4.1-1.5"/>
<path id="path27808" inkscape:connector-curvature="0" class="st7" d="M112.5,107.4l0.7,8.6L112.5,107.4z"/>
<path id="path27810" inkscape:connector-curvature="0" class="st7" d="M259.8,116.7l2.8-5.9"/>
<path id="path26338" inkscape:connector-curvature="0" class="st8" d="M2.3,169.4c5.5-0.2,168.4-74.9,168.4-74.9l4.9,12.5L8.3,182.9
	L2.3,169.4z"/>
<path id="path26342" inkscape:connector-curvature="0" class="st4" d="M170.8,95.5l6,13.5l13.2,1.6l10.9-0.5l19.5-5.1l19.1-12.5
	l7.3-7.7l3-7.6l-1.4-8.4l-2.4-4.1l-6.9-9.2l-24,1l-23.6,10.5l-13.7,12.2l-10.6,8.9L170.8,95.5L170.8,95.5z"/>
<path id="path26344" inkscape:connector-curvature="0" class="st9" d="M177.9,93.9l14-11.9l23.8-10.7l22.9-2l-2.1,3.3l-21.3,12.6
	l-15,7l-9.8,1.5l-9.8,0.4L177.9,93.9z"/>
<path id="path27812" inkscape:connector-curvature="0" class="st10" d="M237.6,55.3l0.9,13.4l0.4,0.3L237.6,55.3z"/>
</svg>
