<?xml version="1.0" encoding="UTF-8" standalone="no"?>
<!-- Created with Inkscape (http://www.inkscape.org/) -->

<svg
   xmlns:dc="http://purl.org/dc/elements/1.1/"
   xmlns:cc="http://creativecommons.org/ns#"
   xmlns:rdf="http://www.w3.org/1999/02/22-rdf-syntax-ns#"
   xmlns:svg="http://www.w3.org/2000/svg"
   xmlns="http://www.w3.org/2000/svg"
   xmlns:sodipodi="http://sodipodi.sourceforge.net/DTD/sodipodi-0.dtd"
   xmlns:inkscape="http://www.inkscape.org/namespaces/inkscape"
   id="svg5641"
   version="1.0"
   viewBox="0 0 454.41 248.38"
   inkscape:version="0.91 r13725"
   sodipodi:docname="logo.svg">
  <defs
     id="defs4288" />
  <sodipodi:namedview
     pagecolor="#ffffff"
     bordercolor="#666666"
     borderopacity="1"
     objecttolerance="10"
     gridtolerance="10"
     guidetolerance="10"
     inkscape:pageopacity="0"
     inkscape:pageshadow="2"
     inkscape:window-width="1189"
     inkscape:window-height="776"
     id="namedview4286"
     showgrid="false"
     inkscape:zoom="2.0444092"
     inkscape:cx="206.90574"
     inkscape:cy="124.19"
     inkscape:window-x="0"
     inkscape:window-y="0"
     inkscape:window-maximized="0"
     inkscape:current-layer="svg5641" />
  <rect
     x="52.389996"
     y="13.579992"
     width="259.84"
     height="15.892"
     style="fill:#d38d5f;fill-rule:evenodd;stroke:#000000;stroke-width:3.05049992;stroke-linejoin:round"
     id="rect26320" />
  <path
     inkscape:connector-curvature="0"
     d="m 278.38,108.4 c 0,20.19 -41.79,36.56 -93.34,36.56 -51.56,0 -93.35,-16.37 -93.35,-36.56 0,-20.18 41.79,-36.55 93.35,-36.55 51.55,0 93.34,16.37 93.34,36.55 z"
     style="fill:#d38d5f;fill-rule:evenodd;stroke:#000000;stroke-width:3.05049992;stroke-linejoin:round"
     id="path26330" />
  <rect
     x="94.969994"
     y="2.9899964"
     width="22.77"
     height="93.533997"
     style="fill:#d38d5f;fill-rule:evenodd;stroke:#000000;stroke-width:3.05049992;stroke-linejoin:round"
     id="rect26322" />
  <rect
     x="255.42001"
     y="1.4899963"
     width="20.341"
     height="99.791"
     style="fill:#d38d5f;fill-rule:evenodd;stroke:#000000;stroke-width:2.97040009;stroke-linejoin:round"
     id="rect26324" />
  <path
     inkscape:connector-curvature="0"
     d="m 260.91,108.4 c 0.03,14.35 -33.22,25.98 -74.24,25.98 -41.01,0 -74.26,-11.63 -74.24,-25.98 -0.02,-14.34 33.23,-25.97 74.24,-25.97 41.02,0 74.27,11.63 74.24,25.97 z"
     style="fill:#c87137;fill-rule:evenodd;stroke:#000000;stroke-width:3.05049992;stroke-linejoin:round"
     id="path26332" />
  <path
     inkscape:connector-curvature="0"
     d="m 258.99,114.76 c 0.03,10.09 -32.6,18.28 -72.86,18.28 -40.26,0 -72.89,-8.19 -72.87,-18.28 -0.02,-10.09 32.61,-18.27 72.87,-18.27 40.26,0 72.89,8.18 72.86,18.27 z"
     style="fill:#80b3ff;fill-rule:evenodd;stroke:#000000;stroke-width:2.53509998;stroke-linejoin:round"
     id="path26334" />
  <path
     inkscape:connector-curvature="0"
     d="m 92.78,116.35 17.47,114.42 32.75,13.78 24.02,2.11 12.01,0 22.93,-1.06 22.93,-5.29 25.11,-10.6 2.18,-1.06 25.11,-114.42 -19.65,18.01 c 0,0 -49.13,10.6 -53.5,10.6 -4.36,0 -64.41,0 -70.96,-6.36 -6.55,-6.36 -26.2,-10.59 -30.57,-14.83 -4.37,-4.24 -7.64,-5.3 -9.83,-5.3 z"
     style="fill:#d38d5f;fill-rule:evenodd;stroke:#000000;stroke-width:3.05049992px;stroke-linecap:round;stroke-linejoin:round"
     id="path26336" />
  <path
     inkscape:connector-curvature="0"
     d="m 122.46,130.41 6.61,107.57"
     style="fill:none;stroke:#000000;stroke-width:3.05049992px"
     id="path27564" />
  <path
     inkscape:connector-curvature="0"
     d="m 154.5,141.76 -1.02,103.62"
     style="fill:none;stroke:#000000;stroke-width:3.05049992px"
     id="path27566" />
  <path
     inkscape:connector-curvature="0"
     d="m 191.62,143.73 -5.09,103.13"
     style="fill:none;stroke:#000000;stroke-width:3.05049992px"
     id="path27568" />
  <path
     inkscape:connector-curvature="0"
     d="m 224.16,138.8 -6.1,103.13"
     style="fill:none;stroke:#000000;stroke-width:3.05049992px"
     id="path27570" />
  <path
     inkscape:connector-curvature="0"
     d="m 253.65,133.86 -10.68,97.7"
     style="fill:none;stroke:#000000;stroke-width:3.05049992px"
     id="path27572" />
  <path
     inkscape:connector-curvature="0"
     d="m 100.09,168.4 c 4.24,0 4.24,7.41 7.63,9.87 3.72,2.71 6.82,3.88 11.18,4.94 2.8,0.68 6.1,3.15 9.16,4.93 4.61,2.69 10.85,3.95 16.78,6.42 3.5,1.46 8.52,0.27 12.2,0.98 7.4,1.44 16.36,0.99 23.9,0.99 5.64,0 11.42,0.31 16.78,-0.99 8.85,-2.14 20.11,1.35 27.97,-2.46 4.15,-2.02 7.21,-0.68 9.15,-4.45 0.79,-1.54 5.31,-2.82 6.61,-3.45 1.78,-0.86 4.66,-2.55 6.1,-3.95 1.44,-1.39 6.67,-3.09 8.14,-3.45 2.82,-0.69 6.69,-3.3 7.12,-4.94 0.09,-0.35 0.34,-0.65 0.5,-0.98"
     style="fill:none;stroke:#000000;stroke-width:3.05049992px;stroke-linecap:round;stroke-linejoin:round"
     id="path27578" />
  <path
     inkscape:connector-curvature="0"
     d="m 103.14,184.69 c 1.34,0.26 6.96,4.11 9.66,5.43 2.7,1.31 5.52,2.93 8.65,3.94 3.55,1.15 7.55,2.43 10.67,3.95 4.26,2.06 10.48,3.53 13.73,5.43 3.11,1.8 11.57,3.45 15.26,3.45 4.8,0 9.47,0.5 14.24,0.5 l 12.2,0 13.22,0 c 4.66,0 8.34,-0.99 13.22,-0.99 3.9,0 5.99,-2.96 10.17,-2.96 2,0 5.63,-1.5 6.61,-1.98 2.49,-1.2 3.58,-2.47 5.59,-3.45 3.12,-1.51 4.5,-1.94 7.63,-3.45 2.65,-1.29 4.94,-1.41 7.12,-2.47 2.31,-1.12 3.25,-2.27 6.1,-2.96 1.65,-0.4 3.04,-0.98 4.07,-1.48"
     style="fill:none;stroke:#000000;stroke-width:3.05049992px;stroke-linecap:round;stroke-linejoin:round"
     id="path27582" />
  <path
     inkscape:connector-curvature="0"
     d="m 111.72,107.4 0.69,8.64 -0.69,-8.64 z"
     style="fill:none;stroke:#000000;stroke-width:1px"
     id="path27808" />
  <path
     inkscape:connector-curvature="0"
     d="m 259,116.74 2.77,-5.88"
     style="fill:none;stroke:#000000;stroke-width:1px"
     id="path27810" />
  <path
     inkscape:connector-curvature="0"
     d="M 1.53,169.37 C 6.98,169.15 169.95,94.45 169.95,94.45 l 4.89,12.52 L 7.56,182.91 1.53,169.37 Z"
     style="fill:#d38d5f;fill-rule:evenodd;stroke:#000000;stroke-width:3.05049992px"
     id="path26338" />
  <path
     inkscape:connector-curvature="0"
     d="m 169.99,95.51 6.03,13.53 13.18,1.57 10.91,-0.46 19.46,-5.05 19.14,-12.47 7.33,-7.73 2.96,-7.55 -1.45,-8.42 -2.36,-4.14 -6.94,-9.25 -24,1 -23.6,10.53 -13.69,12.24 -10.55,8.93 3.58,7.27 z"
     style="fill:#d38d5f;fill-rule:evenodd;stroke:#000000;stroke-width:3.05049992px;stroke-linecap:round;stroke-linejoin:round"
     id="path26342" />
  <path
     inkscape:connector-curvature="0"
     d="m 177.1,93.93 13.99,-11.88 23.78,-10.69 22.87,-2.02 -2.05,3.27 -21.33,12.56 -15.01,6.99 -9.77,1.47 -9.82,0.41 -2.66,-0.11 z"
     style="fill:#c87137;fill-rule:evenodd;stroke:#000000;stroke-width:3.05049992px;stroke-linecap:round;stroke-linejoin:round"
     id="path26344" />
  <path
     inkscape:connector-curvature="0"
     d="m 236.84,55.33 0.91,13.45 0.36,0.33 -1.27,-13.78 z"
     style="fill:none;stroke:#000000;stroke-width:2.4000001;stroke-linejoin:round"
     id="path27812" />
  <metadata
     id="metadata4284">
    <rdf:RDF>
      <cc:Work>
        <dc:format>image/svg+xml</dc:format>
        <dc:type
           rdf:resource="http://purl.org/dc/dcmitype/StillImage" />
        <cc:license
           rdf:resource="http://creativecommons.org/licenses/publicdomain/" />
        <dc:publisher>
          <cc:Agent
             rdf:about="http://openclipart.org/">
            <dc:title>Openclipart</dc:title>
          </cc:Agent>
        </dc:publisher>
        <dc:title></dc:title>
      </cc:Work>
      <cc:License
         rdf:about="http://creativecommons.org/licenses/publicdomain/">
        <cc:permits
           rdf:resource="http://creativecommons.org/ns#Reproduction" />
        <cc:permits
           rdf:resource="http://creativecommons.org/ns#Distribution" />
        <cc:permits
           rdf:resource="http://creativecommons.org/ns#DerivativeWorks" />
      </cc:License>
    </rdf:RDF>
  </metadata>
</svg>
