<?xml version="1.0" standalone="no"?>
<!DOCTYPE svg PUBLIC "-//W3C//DTD SVG 20010904//EN"
 "http://www.w3.org/TR/2001/REC-SVG-20010904/DTD/svg10.dtd">
<svg version="1.0" xmlns="http://www.w3.org/2000/svg"
 width="768.000000pt" height="768.000000pt" viewBox="0 0 768.000000 768.000000"
 preserveAspectRatio="xMidYMid meet">
<metadata>
Created by potrace 1.11, written by Peter Selinger 2001-2013
</metadata>
<g transform="translate(0.000000,768.000000) scale(0.100000,-0.100000)"
fill="#000000" stroke="none">
<path d="M6232 6858 c-8 -8 -12 -55 -12 -147 l0 -136 -1643 0 -1642 0 -3 120
c-1 66 -7 124 -12 129 -13 13 -567 15 -598 2 -21 -9 -22 -14 -22 -130 l0 -121
-507 0 c-392 0 -509 -2 -519 -12 -18 -18 -17 -419 2 -437 10 -11 115 -13 516
-13 l503 -1 5 -813 5 -814 -33 -66 c-17 -37 -36 -89 -42 -116 -11 -59 -6 -157
10 -199 7 -16 13 -58 15 -94 3 -57 8 -98 20 -159 1 -9 6 -35 10 -58 l7 -43
-64 -29 c-130 -59 -384 -174 -403 -181 -11 -4 -54 -24 -95 -43 -178 -82 -1117
-498 -1168 -518 -12 -5 -41 -17 -65 -28 -180 -82 -412 -172 -457 -178 -19 -3
-36 -6 -37 -7 -2 -2 174 -396 180 -403 4 -3 21 1 39 10 18 8 78 35 133 60 55
25 135 61 178 81 43 20 80 36 83 36 2 0 50 22 106 49 57 27 166 77 243 111 77
34 177 80 223 101 46 21 85 39 87 39 2 0 51 23 110 50 59 28 108 50 109 50 2
0 43 19 92 42 49 23 91 42 94 43 6 1 5 1 300 135 124 56 257 116 295 134 61
29 71 31 77 17 6 -14 42 -236 54 -331 2 -19 6 -44 9 -56 5 -24 16 -107 20
-161 2 -21 8 -60 14 -88 6 -27 16 -79 21 -115 5 -36 12 -76 14 -90 3 -14 12
-74 20 -135 9 -60 18 -121 21 -135 3 -14 7 -43 10 -65 3 -22 7 -49 9 -60 2
-11 7 -42 10 -68 4 -27 9 -56 11 -65 1 -10 6 -39 9 -67 4 -27 13 -90 21 -140
8 -49 17 -108 20 -130 3 -22 10 -69 16 -105 6 -36 12 -76 14 -90 17 -130 30
-197 39 -207 6 -6 115 -55 241 -108 127 -53 244 -102 260 -109 17 -8 71 -30
120 -51 50 -20 104 -43 120 -50 63 -28 84 -33 156 -39 69 -6 99 -9 219 -21
154 -16 253 -20 485 -20 348 0 648 15 725 35 19 5 46 11 60 14 14 2 122 27
241 55 204 48 238 58 334 101 22 10 139 59 260 110 314 132 304 126 319 203
14 74 39 188 48 222 5 22 12 51 15 65 2 14 36 167 74 340 39 173 81 368 95
434 13 65 26 121 28 125 2 3 7 22 10 41 3 19 19 96 36 169 17 74 33 148 36
165 3 16 6 32 8 35 2 3 7 22 10 41 3 19 8 44 10 55 4 17 31 142 41 185 2 8 19
87 38 175 20 88 38 171 41 185 22 114 115 520 121 529 6 11 17 76 19 121 3 47
-16 127 -43 182 l-22 46 0 827 c-1 455 2 829 5 832 3 3 195 5 428 5 238 0 431
4 441 10 15 8 17 29 17 223 0 160 -3 216 -12 222 -7 4 -204 8 -438 9 -234 1
-429 2 -435 3 -6 1 -9 51 -8 133 1 83 -2 137 -9 145 -15 18 -528 19 -546 1z
m-19 -747 c7 -1 10 -1241 3 -1241 -6 0 -100 40 -104 45 -2 2 4 17 12 33 9 17
14 37 12 44 -4 12 -7 33 -22 148 -5 40 -64 161 -100 205 -14 17 -54 70 -91
119 l-66 89 -156 -7 c-86 -3 -223 -8 -306 -12 -100 -3 -160 -10 -180 -20 -16
-8 -147 -66 -290 -129 -224 -98 -269 -122 -329 -172 l-70 -58 -70 -1 c-77 -1
-339 -14 -396 -19 -19 -2 -65 -6 -101 -9 -37 -3 -84 -8 -105 -11 -56 -8 -175
-26 -204 -31 -14 -2 -41 -7 -60 -10 -185 -30 -490 -111 -644 -170 -15 -6 -16
41 -16 599 l0 606 53 3 c41 2 3200 1 3230 -1z"/>
</g>
</svg>
